<?xml version="1.0" standalone="no"?>
<!DOCTYPE svg PUBLIC "-//W3C//DTD SVG 20010904//EN"
 "http://www.w3.org/TR/2001/REC-SVG-20010904/DTD/svg10.dtd">
<svg version="1.0" xmlns="http://www.w3.org/2000/svg"
 width="106.000000pt" height="106.000000pt" viewBox="0 0 106.000000 106.000000"
 preserveAspectRatio="xMidYMid meet">
<metadata>
Created by potrace 1.14, written by Peter Selinger 2001-2017
</metadata>
<g transform="translate(0.000000,106.000000) scale(0.100000,-0.100000)"
fill="#000000" stroke="none">
<path d="M239 967 c-93 -62 -181 -282 -214 -537 -3 -25 -8 -61 -10 -80 -3 -19
-8 -93 -11 -163 l-6 -128 68 3 68 3 2 105 c7 404 78 736 161 748 52 8 109
-134 139 -343 12 -87 25 -264 27 -373 1 -41 6 -72 12 -73 16 -1 89 -2 107 0
14 1 16 15 18 94 1 50 3 112 5 137 5 71 15 174 19 195 2 11 7 41 10 66 16 121
64 258 100 288 29 24 63 5 89 -52 24 -50 53 -152 63 -220 17 -118 21 -152 30
-262 6 -79 9 -131 13 -277 l1 -38 66 0 67 0 -6 143 c-4 78 -9 153 -12 166 -2
14 -7 47 -10 75 -3 28 -8 58 -10 66 -2 8 -7 31 -10 50 -18 109 -98 314 -143
367 -27 30 -83 63 -110 63 -34 0 -75 -24 -112 -67 -36 -40 -93 -156 -105 -211
-8 -39 -18 -33 -35 23 -33 105 -104 211 -161 241 -39 20 -71 18 -110 -9z"/>
</g>
</svg>
